<svg width="35" height="41" viewBox="0 0 35 41" fill="none" xmlns="http://www.w3.org/2000/svg">
<path d="M0.896484 29.166C1.43945 29.0957 1.99609 29.0605 2.56641 29.0605C3.62891 29.0605 4.43555 29.3105 4.98633 29.8105C5.54102 30.3066 5.81836 31.0508 5.81836 32.043C5.81836 32.9297 5.51562 33.6309 4.91016 34.1465C4.34375 34.6309 3.61523 34.873 2.72461 34.873C2.62305 34.873 2.51172 34.8672 2.39062 34.8555V37H0.896484V29.166ZM2.74219 30.4727C2.625 30.4727 2.50781 30.4766 2.39062 30.4844V33.5664C2.51562 33.582 2.66797 33.5898 2.84766 33.5898C3.02734 33.5898 3.21484 33.5527 3.41016 33.4785C3.60547 33.4004 3.76953 33.293 3.90234 33.1562C4.17969 32.8711 4.31836 32.4961 4.31836 32.0312C4.31836 30.9922 3.79297 30.4727 2.74219 30.4727ZM8.25586 36.3438C8.25586 36.6797 8.26367 36.8984 8.2793 37H6.82031V30.877H8.25586V31.3281C8.58789 30.9492 8.93555 30.7598 9.29883 30.7598C9.66602 30.7598 9.95508 30.8047 10.166 30.8945L10.0605 32.4707L10.0371 32.4883C9.90039 32.2461 9.61719 32.125 9.1875 32.125C9.02344 32.125 8.85547 32.1816 8.68359 32.2949C8.51562 32.4043 8.37305 32.5508 8.25586 32.7344V36.3438ZM10.4355 33.9707C10.4355 33.541 10.5078 33.1309 10.6523 32.7402C10.8008 32.3457 11.0117 32.002 11.2852 31.709C11.8828 31.0762 12.6582 30.7598 13.6113 30.7598C14.5605 30.7598 15.3145 31.0586 15.873 31.6562C16.4082 32.2266 16.6758 32.9668 16.6758 33.877C16.6758 34.7871 16.4004 35.541 15.8496 36.1387C15.2676 36.7715 14.4961 37.0879 13.5352 37.0879C12.543 37.0879 11.7656 36.7773 11.2031 36.1562C10.6914 35.5898 10.4355 34.8613 10.4355 33.9707ZM11.8594 33.9355C11.8594 34.1816 11.9004 34.4199 11.9824 34.6504C12.0645 34.8809 12.1816 35.0781 12.334 35.2422C12.6582 35.5977 13.084 35.7754 13.6113 35.7754C14.0996 35.7754 14.4844 35.6016 14.7656 35.2539C15.0391 34.918 15.1758 34.4805 15.1758 33.9414C15.1758 33.3945 15.0352 32.9531 14.7539 32.6172C14.4531 32.2578 14.041 32.0781 13.5176 32.0781C12.9863 32.0781 12.5703 32.2695 12.2695 32.6523C11.9961 33.0039 11.8594 33.4316 11.8594 33.9355ZM20.8242 31.5508C20.793 31.6641 20.7773 31.9492 20.7773 32.4062V32.9219H19.3652V37H17.9297V32.9219H17.0684C17.0723 32.6641 17.0762 32.4355 17.0801 32.2363L17.0918 31.6094V31.5508H17.9297V31.1875C17.9297 30.25 18.1484 29.4961 18.5859 28.9258C19.043 28.3359 19.6719 28.041 20.4727 28.041C20.8125 28.041 21.0371 28.0645 21.1465 28.1113L21.1523 29.582L21.1406 29.6113C20.9922 29.4629 20.8027 29.3887 20.5723 29.3887C20.3457 29.3887 20.1621 29.4277 20.0215 29.5059C19.8809 29.5801 19.7617 29.6875 19.6641 29.8281C19.4648 30.1094 19.3652 30.4941 19.3652 30.9824V31.5508H20.8242ZM21.7207 29.1309C22.0332 28.6426 22.3594 28.2129 22.6992 27.8418L23.959 28.832C23.791 29.0391 23.6348 29.2422 23.4902 29.4414C23.4902 29.4414 23.3398 29.6543 23.0391 30.0801L21.7207 29.1309ZM23.2617 36.3438C23.2617 36.6797 23.2695 36.8984 23.2852 37H21.7969V30.877H23.2617V36.3438ZM26.2793 36.3438C26.2793 36.6797 26.2871 36.8984 26.3027 37H24.8145V28.2695H26.2793V36.3438ZM27.6387 33.9883C27.6387 33.5312 27.7168 33.1074 27.873 32.7168C28.0293 32.3262 28.25 31.9844 28.5352 31.6914C29.1445 31.0703 29.9414 30.7598 30.9258 30.7598C31.7578 30.7598 32.4258 31.0352 32.9297 31.5859C33.4258 32.1172 33.6738 32.7852 33.6738 33.5898C33.6738 33.8984 33.6504 34.1094 33.6035 34.2227C33.2129 34.332 32.418 34.3867 31.2188 34.3867H29.1562C29.2578 34.8047 29.4941 35.1309 29.8652 35.3652C30.2363 35.5957 30.7188 35.7109 31.3125 35.7109C31.9336 35.7109 32.4668 35.5996 32.9121 35.377C33.0293 35.3184 33.1172 35.2637 33.1758 35.2129C33.168 35.377 33.1582 35.5449 33.1465 35.7168L33.082 36.6309C32.7852 36.834 32.3047 36.9746 31.6406 37.0527C31.4453 37.0762 31.2578 37.0879 31.0781 37.0879C30.0859 37.0879 29.2656 36.7988 28.6172 36.2207C27.9648 35.6387 27.6387 34.8945 27.6387 33.9883ZM32.1152 33.25C31.9551 32.4102 31.498 31.9902 30.7441 31.9902C30.1504 31.9902 29.6992 32.2461 29.3906 32.7578C29.2969 32.9141 29.2246 33.0859 29.1738 33.2734C29.2676 33.2773 29.3828 33.2812 29.5195 33.2852H29.9531C30.0977 33.2891 30.2363 33.291 30.3691 33.291H30.7031C30.9023 33.291 31.0977 33.2891 31.2891 33.2852L31.7695 33.2676C31.8984 33.2637 32.0137 33.2578 32.1152 33.25Z" fill="#96C5B0"/>
<path d="M17.5 12.5C19.1576 12.5 20.7473 11.8415 21.9194 10.6694C23.0915 9.49731 23.75 7.9076 23.75 6.25C23.75 4.5924 23.0915 3.00269 21.9194 1.83058C20.7473 0.65848 19.1576 0 17.5 0C15.8424 0 14.2527 0.65848 13.0806 1.83058C11.9085 3.00269 11.25 4.5924 11.25 6.25C11.25 7.9076 11.9085 9.49731 13.0806 10.6694C14.2527 11.8415 15.8424 12.5 17.5 12.5ZM21.6667 6.25C21.6667 7.35507 21.2277 8.41488 20.4463 9.19628C19.6649 9.97768 18.6051 10.4167 17.5 10.4167C16.3949 10.4167 15.3351 9.97768 14.5537 9.19628C13.7723 8.41488 13.3333 7.35507 13.3333 6.25C13.3333 5.14493 13.7723 4.08512 14.5537 3.30372C15.3351 2.52232 16.3949 2.08333 17.5 2.08333C18.6051 2.08333 19.6649 2.52232 20.4463 3.30372C21.2277 4.08512 21.6667 5.14493 21.6667 6.25ZM30 22.9167C30 25 27.9167 25 27.9167 25H7.08333C7.08333 25 5 25 5 22.9167C5 20.8333 7.08333 14.5833 17.5 14.5833C27.9167 14.5833 30 20.8333 30 22.9167ZM27.9167 22.9083C27.9146 22.3958 27.5958 20.8542 26.1833 19.4417C24.825 18.0833 22.2687 16.6667 17.5 16.6667C12.7292 16.6667 10.175 18.0833 8.81667 19.4417C7.40417 20.8542 7.0875 22.3958 7.08333 22.9083H27.9167Z" fill="url(#paint0_linear_3423_2159)"/>
<defs>
<linearGradient id="paint0_linear_3423_2159" x1="17.5" y1="0" x2="17.5" y2="25" gradientUnits="userSpaceOnUse">
<stop stop-color="#FF875C"/>
<stop offset="0.47" stop-color="#BF9ACA"/>
<stop offset="1" stop-color="#96C5B0"/>
</linearGradient>
</defs>
</svg>
